<mxfile host="app.diagrams.net" modified="2024-05-22T06:47:44.681Z" agent="Mozilla/5.0 (Windows NT 10.0; Win64; x64) AppleWebKit/537.36 (KHTML, like Gecko) Chrome/125.0.0.0 Safari/537.36 Edg/125.0.0.0" etag="_KCCrbDpEyijI3qSdbCv" version="24.4.4" type="device">
  <diagram id="C5RBs43oDa-KdzZeNtuy" name="Page-1">
    <mxGraphModel dx="822" dy="1718" grid="1" gridSize="10" guides="1" tooltips="1" connect="1" arrows="1" fold="1" page="1" pageScale="1" pageWidth="827" pageHeight="1169" math="0" shadow="0">
      <root>
        <mxCell id="WIyWlLk6GJQsqaUBKTNV-0" />
        <mxCell id="WIyWlLk6GJQsqaUBKTNV-1" parent="WIyWlLk6GJQsqaUBKTNV-0" />
        <mxCell id="KK3AH5NCYBzVBKTe3Wy7-18" style="edgeStyle=orthogonalEdgeStyle;rounded=0;orthogonalLoop=1;jettySize=auto;html=1;exitX=0.5;exitY=1;exitDx=0;exitDy=0;entryX=0.5;entryY=0;entryDx=0;entryDy=0;" parent="WIyWlLk6GJQsqaUBKTNV-1" source="Fr343CmHXT7wV26dk7qi-0" target="KK3AH5NCYBzVBKTe3Wy7-0" edge="1">
          <mxGeometry relative="1" as="geometry" />
        </mxCell>
        <mxCell id="Fr343CmHXT7wV26dk7qi-0" value="isGameEnded()&lt;br&gt;開始" style="ellipse;whiteSpace=wrap;html=1;" parent="WIyWlLk6GJQsqaUBKTNV-1" vertex="1">
          <mxGeometry x="240" y="-240" width="120" height="40" as="geometry" />
        </mxCell>
        <mxCell id="KK3AH5NCYBzVBKTe3Wy7-11" style="edgeStyle=orthogonalEdgeStyle;rounded=0;orthogonalLoop=1;jettySize=auto;html=1;exitX=0.5;exitY=1;exitDx=0;exitDy=0;entryX=0.5;entryY=0;entryDx=0;entryDy=0;" parent="WIyWlLk6GJQsqaUBKTNV-1" source="Fr343CmHXT7wV26dk7qi-1" target="qSTZ1PMOW7HzgLewVR4h-2" edge="1">
          <mxGeometry relative="1" as="geometry" />
        </mxCell>
        <mxCell id="KK3AH5NCYBzVBKTe3Wy7-16" style="edgeStyle=orthogonalEdgeStyle;rounded=0;orthogonalLoop=1;jettySize=auto;html=1;exitX=1;exitY=0.5;exitDx=0;exitDy=0;entryX=0;entryY=0.5;entryDx=0;entryDy=0;" parent="WIyWlLk6GJQsqaUBKTNV-1" source="Fr343CmHXT7wV26dk7qi-1" target="Fr343CmHXT7wV26dk7qi-2" edge="1">
          <mxGeometry relative="1" as="geometry" />
        </mxCell>
        <mxCell id="Fr343CmHXT7wV26dk7qi-1" value="現在の&lt;div&gt;プレイヤー&lt;br&gt;i行またはi列で&lt;/div&gt;&lt;div&gt;勝利条件を満たしたか？&lt;/div&gt;" style="rhombus;whiteSpace=wrap;html=1;" parent="WIyWlLk6GJQsqaUBKTNV-1" vertex="1">
          <mxGeometry x="260" y="-80" width="80" height="80" as="geometry" />
        </mxCell>
        <mxCell id="Fr343CmHXT7wV26dk7qi-11" style="edgeStyle=orthogonalEdgeStyle;rounded=0;orthogonalLoop=1;jettySize=auto;html=1;exitX=0.5;exitY=1;exitDx=0;exitDy=0;" parent="WIyWlLk6GJQsqaUBKTNV-1" source="Fr343CmHXT7wV26dk7qi-2" target="Fr343CmHXT7wV26dk7qi-8" edge="1">
          <mxGeometry relative="1" as="geometry" />
        </mxCell>
        <mxCell id="Fr343CmHXT7wV26dk7qi-13" style="edgeStyle=orthogonalEdgeStyle;rounded=0;orthogonalLoop=1;jettySize=auto;html=1;exitX=1;exitY=0.5;exitDx=0;exitDy=0;" parent="WIyWlLk6GJQsqaUBKTNV-1" source="Fr343CmHXT7wV26dk7qi-2" target="Fr343CmHXT7wV26dk7qi-12" edge="1">
          <mxGeometry relative="1" as="geometry" />
        </mxCell>
        <mxCell id="Fr343CmHXT7wV26dk7qi-2" value="空白の存在を表す変数&lt;div&gt;がTRUEか？&lt;/div&gt;" style="rhombus;whiteSpace=wrap;html=1;" parent="WIyWlLk6GJQsqaUBKTNV-1" vertex="1">
          <mxGeometry x="421" y="-80" width="80" height="80" as="geometry" />
        </mxCell>
        <mxCell id="Fr343CmHXT7wV26dk7qi-15" style="edgeStyle=orthogonalEdgeStyle;rounded=0;orthogonalLoop=1;jettySize=auto;html=1;exitX=0.5;exitY=1;exitDx=0;exitDy=0;entryX=0.5;entryY=0;entryDx=0;entryDy=0;" parent="WIyWlLk6GJQsqaUBKTNV-1" source="Fr343CmHXT7wV26dk7qi-7" target="Fr343CmHXT7wV26dk7qi-14" edge="1">
          <mxGeometry relative="1" as="geometry" />
        </mxCell>
        <mxCell id="Fr343CmHXT7wV26dk7qi-7" value="この関数で定義した&lt;div&gt;命令を&lt;span style=&quot;background-color: initial;&quot;&gt;格納する変数を返す&lt;/span&gt;&lt;/div&gt;" style="rounded=0;whiteSpace=wrap;html=1;" parent="WIyWlLk6GJQsqaUBKTNV-1" vertex="1">
          <mxGeometry x="240" y="320" width="120" height="40" as="geometry" />
        </mxCell>
        <mxCell id="KK3AH5NCYBzVBKTe3Wy7-22" style="edgeStyle=orthogonalEdgeStyle;rounded=0;orthogonalLoop=1;jettySize=auto;html=1;exitX=0.5;exitY=1;exitDx=0;exitDy=0;" parent="WIyWlLk6GJQsqaUBKTNV-1" source="Fr343CmHXT7wV26dk7qi-8" edge="1">
          <mxGeometry relative="1" as="geometry">
            <mxPoint x="300" y="220" as="targetPoint" />
            <Array as="points">
              <mxPoint x="461" y="220" />
            </Array>
          </mxGeometry>
        </mxCell>
        <mxCell id="Fr343CmHXT7wV26dk7qi-8" value="リザルト表示命令1&lt;br&gt;をこの関数で定義し命令を格納する変数に保存" style="rounded=0;whiteSpace=wrap;html=1;" parent="WIyWlLk6GJQsqaUBKTNV-1" vertex="1">
          <mxGeometry x="401" y="160" width="120" height="40" as="geometry" />
        </mxCell>
        <mxCell id="KK3AH5NCYBzVBKTe3Wy7-23" style="edgeStyle=orthogonalEdgeStyle;rounded=0;orthogonalLoop=1;jettySize=auto;html=1;exitX=0.5;exitY=1;exitDx=0;exitDy=0;" parent="WIyWlLk6GJQsqaUBKTNV-1" source="Fr343CmHXT7wV26dk7qi-12" edge="1">
          <mxGeometry relative="1" as="geometry">
            <mxPoint x="300" y="220" as="targetPoint" />
            <Array as="points">
              <mxPoint x="620" y="220" />
            </Array>
          </mxGeometry>
        </mxCell>
        <mxCell id="Fr343CmHXT7wV26dk7qi-12" value="ゲーム続行命令&lt;br&gt;をこの関数で定義し命令を格納する変数に保存" style="rounded=0;whiteSpace=wrap;html=1;" parent="WIyWlLk6GJQsqaUBKTNV-1" vertex="1">
          <mxGeometry x="560" y="160" width="120" height="40" as="geometry" />
        </mxCell>
        <mxCell id="Fr343CmHXT7wV26dk7qi-14" value="isGameEnded()&lt;br&gt;終了" style="ellipse;whiteSpace=wrap;html=1;" parent="WIyWlLk6GJQsqaUBKTNV-1" vertex="1">
          <mxGeometry x="240" y="400" width="120" height="40" as="geometry" />
        </mxCell>
        <mxCell id="qSTZ1PMOW7HzgLewVR4h-0" value="Yes" style="text;html=1;align=center;verticalAlign=middle;whiteSpace=wrap;rounded=0;" parent="WIyWlLk6GJQsqaUBKTNV-1" vertex="1">
          <mxGeometry x="240" y="130" width="60" height="30" as="geometry" />
        </mxCell>
        <mxCell id="KK3AH5NCYBzVBKTe3Wy7-12" style="edgeStyle=orthogonalEdgeStyle;rounded=0;orthogonalLoop=1;jettySize=auto;html=1;exitX=0.5;exitY=1;exitDx=0;exitDy=0;" parent="WIyWlLk6GJQsqaUBKTNV-1" source="qSTZ1PMOW7HzgLewVR4h-2" target="KK3AH5NCYBzVBKTe3Wy7-10" edge="1">
          <mxGeometry relative="1" as="geometry" />
        </mxCell>
        <mxCell id="KK3AH5NCYBzVBKTe3Wy7-17" style="edgeStyle=orthogonalEdgeStyle;rounded=0;orthogonalLoop=1;jettySize=auto;html=1;exitX=0;exitY=0.5;exitDx=0;exitDy=0;entryX=0.5;entryY=0;entryDx=0;entryDy=0;" parent="WIyWlLk6GJQsqaUBKTNV-1" source="qSTZ1PMOW7HzgLewVR4h-2" target="qSTZ1PMOW7HzgLewVR4h-5" edge="1">
          <mxGeometry relative="1" as="geometry" />
        </mxCell>
        <mxCell id="qSTZ1PMOW7HzgLewVR4h-2" value="現在の&lt;div&gt;プレイヤーはプレイヤー1か？&lt;/div&gt;" style="rhombus;whiteSpace=wrap;html=1;" parent="WIyWlLk6GJQsqaUBKTNV-1" vertex="1">
          <mxGeometry x="260" y="50" width="80" height="80" as="geometry" />
        </mxCell>
        <mxCell id="KK3AH5NCYBzVBKTe3Wy7-24" style="edgeStyle=orthogonalEdgeStyle;rounded=0;orthogonalLoop=1;jettySize=auto;html=1;exitX=0.5;exitY=1;exitDx=0;exitDy=0;" parent="WIyWlLk6GJQsqaUBKTNV-1" source="qSTZ1PMOW7HzgLewVR4h-5" edge="1">
          <mxGeometry relative="1" as="geometry">
            <mxPoint x="300" y="220" as="targetPoint" />
            <Array as="points">
              <mxPoint x="140" y="220" />
            </Array>
          </mxGeometry>
        </mxCell>
        <mxCell id="qSTZ1PMOW7HzgLewVR4h-5" value="リザルト表示命令3をこの関数で定義した命令を格納する変数に保存" style="rounded=0;whiteSpace=wrap;html=1;" parent="WIyWlLk6GJQsqaUBKTNV-1" vertex="1">
          <mxGeometry x="80" y="160" width="120" height="40" as="geometry" />
        </mxCell>
        <mxCell id="qSTZ1PMOW7HzgLewVR4h-11" value="No" style="text;html=1;align=center;verticalAlign=middle;whiteSpace=wrap;rounded=0;" parent="WIyWlLk6GJQsqaUBKTNV-1" vertex="1">
          <mxGeometry x="354" y="-70" width="60" height="30" as="geometry" />
        </mxCell>
        <mxCell id="lDD3fu0apUJb9gLbn5yu-2" value="Yes" style="text;html=1;align=center;verticalAlign=middle;whiteSpace=wrap;rounded=0;" parent="WIyWlLk6GJQsqaUBKTNV-1" vertex="1">
          <mxGeometry x="240" width="60" height="30" as="geometry" />
        </mxCell>
        <mxCell id="lDD3fu0apUJb9gLbn5yu-3" value="No" style="text;html=1;align=center;verticalAlign=middle;whiteSpace=wrap;rounded=0;" parent="WIyWlLk6GJQsqaUBKTNV-1" vertex="1">
          <mxGeometry x="200" y="60" width="60" height="30" as="geometry" />
        </mxCell>
        <mxCell id="KK3AH5NCYBzVBKTe3Wy7-15" style="edgeStyle=orthogonalEdgeStyle;rounded=0;orthogonalLoop=1;jettySize=auto;html=1;exitX=0.5;exitY=1;exitDx=0;exitDy=0;entryX=0.5;entryY=0;entryDx=0;entryDy=0;" parent="WIyWlLk6GJQsqaUBKTNV-1" source="KK3AH5NCYBzVBKTe3Wy7-0" target="Fr343CmHXT7wV26dk7qi-1" edge="1">
          <mxGeometry relative="1" as="geometry" />
        </mxCell>
        <mxCell id="KK3AH5NCYBzVBKTe3Wy7-0" value="for i :&amp;nbsp;&lt;div&gt;0 -&amp;gt; ZHU_SIZE -1&lt;/div&gt;" style="shape=trapezoid;perimeter=trapezoidPerimeter;whiteSpace=wrap;html=1;fixedSize=1;" parent="WIyWlLk6GJQsqaUBKTNV-1" vertex="1">
          <mxGeometry x="240" y="-160" width="120" height="40" as="geometry" />
        </mxCell>
        <mxCell id="KK3AH5NCYBzVBKTe3Wy7-21" style="edgeStyle=orthogonalEdgeStyle;rounded=0;orthogonalLoop=1;jettySize=auto;html=1;exitX=0.5;exitY=0;exitDx=0;exitDy=0;entryX=0.5;entryY=0;entryDx=0;entryDy=0;" parent="WIyWlLk6GJQsqaUBKTNV-1" source="KK3AH5NCYBzVBKTe3Wy7-1" target="Fr343CmHXT7wV26dk7qi-7" edge="1">
          <mxGeometry relative="1" as="geometry" />
        </mxCell>
        <mxCell id="KK3AH5NCYBzVBKTe3Wy7-1" value="for loop ended" style="shape=trapezoid;perimeter=trapezoidPerimeter;whiteSpace=wrap;html=1;fixedSize=1;rotation=-180;" parent="WIyWlLk6GJQsqaUBKTNV-1" vertex="1">
          <mxGeometry x="240" y="240" width="120" height="40" as="geometry" />
        </mxCell>
        <mxCell id="KK3AH5NCYBzVBKTe3Wy7-13" style="edgeStyle=orthogonalEdgeStyle;rounded=0;orthogonalLoop=1;jettySize=auto;html=1;exitX=0.5;exitY=1;exitDx=0;exitDy=0;" parent="WIyWlLk6GJQsqaUBKTNV-1" source="KK3AH5NCYBzVBKTe3Wy7-10" target="KK3AH5NCYBzVBKTe3Wy7-1" edge="1">
          <mxGeometry relative="1" as="geometry" />
        </mxCell>
        <mxCell id="KK3AH5NCYBzVBKTe3Wy7-10" value="リザルト表示命令2を&lt;div&gt;この関数で定義した命令を&lt;span style=&quot;background-color: initial;&quot;&gt;格納&lt;/span&gt;&lt;span style=&quot;background-color: initial;&quot;&gt;する&lt;/span&gt;&lt;span style=&quot;background-color: initial;&quot;&gt;変数に保存&lt;/span&gt;&lt;/div&gt;" style="rounded=0;whiteSpace=wrap;html=1;" parent="WIyWlLk6GJQsqaUBKTNV-1" vertex="1">
          <mxGeometry x="240" y="160" width="120" height="40" as="geometry" />
        </mxCell>
        <mxCell id="KK3AH5NCYBzVBKTe3Wy7-19" value="Yes" style="text;html=1;align=center;verticalAlign=middle;whiteSpace=wrap;rounded=0;" parent="WIyWlLk6GJQsqaUBKTNV-1" vertex="1">
          <mxGeometry x="510" y="-70" width="60" height="30" as="geometry" />
        </mxCell>
        <mxCell id="KK3AH5NCYBzVBKTe3Wy7-20" value="No" style="text;html=1;align=center;verticalAlign=middle;whiteSpace=wrap;rounded=0;" parent="WIyWlLk6GJQsqaUBKTNV-1" vertex="1">
          <mxGeometry x="401" width="60" height="30" as="geometry" />
        </mxCell>
        <mxCell id="KK3AH5NCYBzVBKTe3Wy7-25" value="命令を保存する変数とは、リザルト表示命令/ゲーム続行命令を表す変数のことである。" style="text;html=1;align=center;verticalAlign=middle;whiteSpace=wrap;rounded=0;" parent="WIyWlLk6GJQsqaUBKTNV-1" vertex="1">
          <mxGeometry x="360" y="-160" width="270" height="20" as="geometry" />
        </mxCell>
      </root>
    </mxGraphModel>
  </diagram>
</mxfile>
